<mxfile host="Electron" modified="2024-08-28T07:05:34.534Z" agent="Mozilla/5.0 (Windows NT 10.0; Win64; x64) AppleWebKit/537.36 (KHTML, like Gecko) draw.io/24.2.5 Chrome/120.0.6099.109 Electron/28.1.0 Safari/537.36" etag="DxCyTnA4UXUyi0SRHxxD" version="24.2.5" type="device">
  <diagram name="第 1 页" id="wrRkPgS2m4v88J5hZSVj">
    <mxGraphModel dx="2074" dy="2365" grid="1" gridSize="10" guides="1" tooltips="1" connect="1" arrows="1" fold="1" page="1" pageScale="1" pageWidth="827" pageHeight="1169" math="0" shadow="0">
      <root>
        <mxCell id="0" />
        <mxCell id="1" parent="0" />
        <mxCell id="ZiilgQkx77UCrtT-f1Fs-1" value="" style="edgeStyle=orthogonalEdgeStyle;rounded=0;orthogonalLoop=1;jettySize=auto;html=1;" edge="1" parent="1" source="ZiilgQkx77UCrtT-f1Fs-2" target="ZiilgQkx77UCrtT-f1Fs-7">
          <mxGeometry relative="1" as="geometry">
            <mxPoint x="310" y="341" as="targetPoint" />
          </mxGeometry>
        </mxCell>
        <mxCell id="ZiilgQkx77UCrtT-f1Fs-2" value="&lt;b&gt;Aggregate (Partial)&lt;/b&gt;" style="whiteSpace=wrap;html=1;rounded=0;fillColor=#dae8fc;strokeColor=#6c8ebf;" vertex="1" parent="1">
          <mxGeometry x="250" y="395" width="120" height="60" as="geometry" />
        </mxCell>
        <mxCell id="ZiilgQkx77UCrtT-f1Fs-3" value="" style="edgeStyle=orthogonalEdgeStyle;rounded=0;orthogonalLoop=1;jettySize=auto;html=1;" edge="1" parent="1" source="ZiilgQkx77UCrtT-f1Fs-4" target="ZiilgQkx77UCrtT-f1Fs-2">
          <mxGeometry relative="1" as="geometry" />
        </mxCell>
        <mxCell id="ZiilgQkx77UCrtT-f1Fs-4" value="" style="rounded=1;whiteSpace=wrap;html=1;fillColor=#d5e8d4;strokeColor=#82b366;" vertex="1" parent="1">
          <mxGeometry x="265" y="492" width="90" height="20" as="geometry" />
        </mxCell>
        <mxCell id="ZiilgQkx77UCrtT-f1Fs-5" value="" style="rounded=1;whiteSpace=wrap;html=1;fillColor=#d5e8d4;strokeColor=#82b366;" vertex="1" parent="1">
          <mxGeometry x="265" y="522" width="90" height="20" as="geometry" />
        </mxCell>
        <mxCell id="ZiilgQkx77UCrtT-f1Fs-6" value="Partition0" style="text;html=1;align=center;verticalAlign=middle;resizable=0;points=[];autosize=1;strokeColor=none;fillColor=none;" vertex="1" parent="1">
          <mxGeometry x="275" y="550" width="70" height="30" as="geometry" />
        </mxCell>
        <mxCell id="ZiilgQkx77UCrtT-f1Fs-7" value="" style="rounded=1;whiteSpace=wrap;html=1;fillColor=#d5e8d4;strokeColor=#82b366;" vertex="1" parent="1">
          <mxGeometry x="265" y="330" width="90" height="20" as="geometry" />
        </mxCell>
        <mxCell id="ZiilgQkx77UCrtT-f1Fs-8" value="Partition0" style="text;html=1;align=center;verticalAlign=middle;resizable=0;points=[];autosize=1;strokeColor=none;fillColor=none;" vertex="1" parent="1">
          <mxGeometry x="275" y="298" width="70" height="30" as="geometry" />
        </mxCell>
        <mxCell id="ZiilgQkx77UCrtT-f1Fs-9" value="" style="edgeStyle=orthogonalEdgeStyle;rounded=0;orthogonalLoop=1;jettySize=auto;html=1;" edge="1" parent="1" source="ZiilgQkx77UCrtT-f1Fs-10" target="ZiilgQkx77UCrtT-f1Fs-15">
          <mxGeometry relative="1" as="geometry">
            <mxPoint x="440" y="341" as="targetPoint" />
          </mxGeometry>
        </mxCell>
        <mxCell id="ZiilgQkx77UCrtT-f1Fs-10" value="&lt;b&gt;Aggregate (Partial)&lt;/b&gt;" style="whiteSpace=wrap;html=1;rounded=0;fillColor=#dae8fc;strokeColor=#6c8ebf;" vertex="1" parent="1">
          <mxGeometry x="380" y="395" width="120" height="60" as="geometry" />
        </mxCell>
        <mxCell id="ZiilgQkx77UCrtT-f1Fs-11" value="" style="edgeStyle=orthogonalEdgeStyle;rounded=0;orthogonalLoop=1;jettySize=auto;html=1;" edge="1" parent="1" source="ZiilgQkx77UCrtT-f1Fs-12" target="ZiilgQkx77UCrtT-f1Fs-10">
          <mxGeometry relative="1" as="geometry" />
        </mxCell>
        <mxCell id="ZiilgQkx77UCrtT-f1Fs-12" value="" style="rounded=1;whiteSpace=wrap;html=1;fillColor=#d5e8d4;strokeColor=#82b366;" vertex="1" parent="1">
          <mxGeometry x="395" y="492" width="90" height="20" as="geometry" />
        </mxCell>
        <mxCell id="ZiilgQkx77UCrtT-f1Fs-13" value="" style="rounded=1;whiteSpace=wrap;html=1;fillColor=#d5e8d4;strokeColor=#82b366;" vertex="1" parent="1">
          <mxGeometry x="395" y="522" width="90" height="20" as="geometry" />
        </mxCell>
        <mxCell id="ZiilgQkx77UCrtT-f1Fs-14" value="Partition1" style="text;html=1;align=center;verticalAlign=middle;resizable=0;points=[];autosize=1;strokeColor=none;fillColor=none;" vertex="1" parent="1">
          <mxGeometry x="405" y="550" width="70" height="30" as="geometry" />
        </mxCell>
        <mxCell id="ZiilgQkx77UCrtT-f1Fs-15" value="" style="rounded=1;whiteSpace=wrap;html=1;fillColor=#d5e8d4;strokeColor=#82b366;" vertex="1" parent="1">
          <mxGeometry x="395" y="330" width="90" height="20" as="geometry" />
        </mxCell>
        <mxCell id="ZiilgQkx77UCrtT-f1Fs-16" value="Partition1" style="text;html=1;align=center;verticalAlign=middle;resizable=0;points=[];autosize=1;strokeColor=none;fillColor=none;" vertex="1" parent="1">
          <mxGeometry x="405" y="298" width="70" height="30" as="geometry" />
        </mxCell>
        <mxCell id="ZiilgQkx77UCrtT-f1Fs-17" value="" style="edgeStyle=orthogonalEdgeStyle;rounded=0;orthogonalLoop=1;jettySize=auto;html=1;" edge="1" parent="1" source="ZiilgQkx77UCrtT-f1Fs-18" target="ZiilgQkx77UCrtT-f1Fs-23">
          <mxGeometry relative="1" as="geometry">
            <mxPoint x="630" y="341" as="targetPoint" />
          </mxGeometry>
        </mxCell>
        <mxCell id="ZiilgQkx77UCrtT-f1Fs-18" value="&lt;b&gt;Aggregate (Partial)&lt;/b&gt;" style="whiteSpace=wrap;html=1;rounded=0;fillColor=#dae8fc;strokeColor=#6c8ebf;" vertex="1" parent="1">
          <mxGeometry x="570" y="395" width="120" height="60" as="geometry" />
        </mxCell>
        <mxCell id="ZiilgQkx77UCrtT-f1Fs-19" value="" style="edgeStyle=orthogonalEdgeStyle;rounded=0;orthogonalLoop=1;jettySize=auto;html=1;" edge="1" parent="1" source="ZiilgQkx77UCrtT-f1Fs-20" target="ZiilgQkx77UCrtT-f1Fs-18">
          <mxGeometry relative="1" as="geometry" />
        </mxCell>
        <mxCell id="ZiilgQkx77UCrtT-f1Fs-20" value="" style="rounded=1;whiteSpace=wrap;html=1;fillColor=#d5e8d4;strokeColor=#82b366;" vertex="1" parent="1">
          <mxGeometry x="585" y="492" width="90" height="20" as="geometry" />
        </mxCell>
        <mxCell id="ZiilgQkx77UCrtT-f1Fs-21" value="" style="rounded=1;whiteSpace=wrap;html=1;fillColor=#d5e8d4;strokeColor=#82b366;" vertex="1" parent="1">
          <mxGeometry x="585" y="522" width="90" height="20" as="geometry" />
        </mxCell>
        <mxCell id="ZiilgQkx77UCrtT-f1Fs-22" value="PartitionN" style="text;html=1;align=center;verticalAlign=middle;resizable=0;points=[];autosize=1;strokeColor=none;fillColor=none;" vertex="1" parent="1">
          <mxGeometry x="590" y="550" width="80" height="30" as="geometry" />
        </mxCell>
        <mxCell id="ZiilgQkx77UCrtT-f1Fs-23" value="" style="rounded=1;whiteSpace=wrap;html=1;fillColor=#d5e8d4;strokeColor=#82b366;" vertex="1" parent="1">
          <mxGeometry x="585" y="330" width="90" height="20" as="geometry" />
        </mxCell>
        <mxCell id="ZiilgQkx77UCrtT-f1Fs-24" value="PartitionN" style="text;html=1;align=center;verticalAlign=middle;resizable=0;points=[];autosize=1;strokeColor=none;fillColor=none;" vertex="1" parent="1">
          <mxGeometry x="590" y="298" width="80" height="30" as="geometry" />
        </mxCell>
        <mxCell id="ZiilgQkx77UCrtT-f1Fs-25" value="" style="shape=waypoint;sketch=0;size=6;pointerEvents=1;points=[];fillColor=none;resizable=0;rotatable=0;perimeter=centerPerimeter;snapToPoint=1;" vertex="1" parent="1">
          <mxGeometry x="515" y="420" width="20" height="20" as="geometry" />
        </mxCell>
        <mxCell id="ZiilgQkx77UCrtT-f1Fs-26" value="" style="shape=waypoint;sketch=0;size=6;pointerEvents=1;points=[];fillColor=none;resizable=0;rotatable=0;perimeter=centerPerimeter;snapToPoint=1;" vertex="1" parent="1">
          <mxGeometry x="525" y="420" width="20" height="20" as="geometry" />
        </mxCell>
        <mxCell id="ZiilgQkx77UCrtT-f1Fs-27" value="" style="shape=waypoint;sketch=0;size=6;pointerEvents=1;points=[];fillColor=none;resizable=0;rotatable=0;perimeter=centerPerimeter;snapToPoint=1;" vertex="1" parent="1">
          <mxGeometry x="535" y="420" width="20" height="20" as="geometry" />
        </mxCell>
        <mxCell id="ZiilgQkx77UCrtT-f1Fs-29" value="&lt;b&gt;Repartition&lt;/b&gt;&lt;div&gt;&lt;b&gt;Hash(group key)&lt;/b&gt;&lt;/div&gt;" style="whiteSpace=wrap;html=1;rounded=0;fillColor=#dae8fc;strokeColor=#6c8ebf;" vertex="1" parent="1">
          <mxGeometry x="405" y="160" width="120" height="60" as="geometry" />
        </mxCell>
        <mxCell id="ZiilgQkx77UCrtT-f1Fs-30" value="" style="endArrow=classic;html=1;rounded=0;exitX=0.371;exitY=0;exitDx=0;exitDy=0;exitPerimeter=0;" edge="1" parent="1">
          <mxGeometry width="50" height="50" relative="1" as="geometry">
            <mxPoint x="307.9699999999998" y="298" as="sourcePoint" />
            <mxPoint x="437" y="230" as="targetPoint" />
          </mxGeometry>
        </mxCell>
        <mxCell id="ZiilgQkx77UCrtT-f1Fs-31" value="" style="endArrow=classic;html=1;rounded=0;" edge="1" parent="1">
          <mxGeometry width="50" height="50" relative="1" as="geometry">
            <mxPoint x="440" y="300" as="sourcePoint" />
            <mxPoint x="460" y="230" as="targetPoint" />
          </mxGeometry>
        </mxCell>
        <mxCell id="ZiilgQkx77UCrtT-f1Fs-32" value="" style="endArrow=classic;html=1;rounded=0;" edge="1" parent="1">
          <mxGeometry width="50" height="50" relative="1" as="geometry">
            <mxPoint x="630" y="300" as="sourcePoint" />
            <mxPoint x="480" y="230" as="targetPoint" />
          </mxGeometry>
        </mxCell>
        <mxCell id="ZiilgQkx77UCrtT-f1Fs-35" value="" style="rounded=1;whiteSpace=wrap;html=1;fillColor=#d5e8d4;strokeColor=#82b366;" vertex="1" parent="1">
          <mxGeometry x="265" y="64" width="90" height="20" as="geometry" />
        </mxCell>
        <mxCell id="ZiilgQkx77UCrtT-f1Fs-50" value="" style="edgeStyle=orthogonalEdgeStyle;rounded=0;orthogonalLoop=1;jettySize=auto;html=1;" edge="1" parent="1" source="ZiilgQkx77UCrtT-f1Fs-36" target="ZiilgQkx77UCrtT-f1Fs-44">
          <mxGeometry relative="1" as="geometry" />
        </mxCell>
        <mxCell id="ZiilgQkx77UCrtT-f1Fs-36" value="Partition0" style="text;html=1;align=center;verticalAlign=middle;resizable=0;points=[];autosize=1;strokeColor=none;fillColor=none;" vertex="1" parent="1">
          <mxGeometry x="275" y="32" width="70" height="30" as="geometry" />
        </mxCell>
        <mxCell id="ZiilgQkx77UCrtT-f1Fs-37" value="" style="rounded=1;whiteSpace=wrap;html=1;fillColor=#d5e8d4;strokeColor=#82b366;" vertex="1" parent="1">
          <mxGeometry x="395" y="64" width="90" height="20" as="geometry" />
        </mxCell>
        <mxCell id="ZiilgQkx77UCrtT-f1Fs-51" value="" style="edgeStyle=orthogonalEdgeStyle;rounded=0;orthogonalLoop=1;jettySize=auto;html=1;" edge="1" parent="1" source="ZiilgQkx77UCrtT-f1Fs-38" target="ZiilgQkx77UCrtT-f1Fs-45">
          <mxGeometry relative="1" as="geometry" />
        </mxCell>
        <mxCell id="ZiilgQkx77UCrtT-f1Fs-38" value="Partition1" style="text;html=1;align=center;verticalAlign=middle;resizable=0;points=[];autosize=1;strokeColor=none;fillColor=none;" vertex="1" parent="1">
          <mxGeometry x="405" y="32" width="70" height="30" as="geometry" />
        </mxCell>
        <mxCell id="ZiilgQkx77UCrtT-f1Fs-39" value="" style="rounded=1;whiteSpace=wrap;html=1;fillColor=#d5e8d4;strokeColor=#82b366;" vertex="1" parent="1">
          <mxGeometry x="585" y="64" width="90" height="20" as="geometry" />
        </mxCell>
        <mxCell id="ZiilgQkx77UCrtT-f1Fs-52" value="" style="edgeStyle=orthogonalEdgeStyle;rounded=0;orthogonalLoop=1;jettySize=auto;html=1;" edge="1" parent="1" source="ZiilgQkx77UCrtT-f1Fs-40" target="ZiilgQkx77UCrtT-f1Fs-46">
          <mxGeometry relative="1" as="geometry" />
        </mxCell>
        <mxCell id="ZiilgQkx77UCrtT-f1Fs-40" value="PartitionM" style="text;html=1;align=center;verticalAlign=middle;resizable=0;points=[];autosize=1;strokeColor=none;fillColor=none;" vertex="1" parent="1">
          <mxGeometry x="590" y="32" width="80" height="30" as="geometry" />
        </mxCell>
        <mxCell id="ZiilgQkx77UCrtT-f1Fs-41" value="" style="endArrow=classic;html=1;rounded=0;" edge="1" parent="1">
          <mxGeometry width="50" height="50" relative="1" as="geometry">
            <mxPoint x="430" y="150" as="sourcePoint" />
            <mxPoint x="310" y="100" as="targetPoint" />
          </mxGeometry>
        </mxCell>
        <mxCell id="ZiilgQkx77UCrtT-f1Fs-42" value="" style="endArrow=classic;html=1;rounded=0;" edge="1" parent="1">
          <mxGeometry width="50" height="50" relative="1" as="geometry">
            <mxPoint x="460" y="150" as="sourcePoint" />
            <mxPoint x="440" y="100" as="targetPoint" />
          </mxGeometry>
        </mxCell>
        <mxCell id="ZiilgQkx77UCrtT-f1Fs-43" value="" style="endArrow=classic;html=1;rounded=0;" edge="1" parent="1">
          <mxGeometry width="50" height="50" relative="1" as="geometry">
            <mxPoint x="490" y="150" as="sourcePoint" />
            <mxPoint x="630" y="100" as="targetPoint" />
          </mxGeometry>
        </mxCell>
        <mxCell id="ZiilgQkx77UCrtT-f1Fs-72" style="edgeStyle=orthogonalEdgeStyle;rounded=0;orthogonalLoop=1;jettySize=auto;html=1;entryX=0.5;entryY=1;entryDx=0;entryDy=0;" edge="1" parent="1" source="ZiilgQkx77UCrtT-f1Fs-44" target="ZiilgQkx77UCrtT-f1Fs-62">
          <mxGeometry relative="1" as="geometry" />
        </mxCell>
        <mxCell id="ZiilgQkx77UCrtT-f1Fs-44" value="&lt;b&gt;Aggregate (FinalPartitioned)&lt;/b&gt;" style="whiteSpace=wrap;html=1;rounded=0;fillColor=#dae8fc;strokeColor=#6c8ebf;" vertex="1" parent="1">
          <mxGeometry x="250" y="-60" width="120" height="60" as="geometry" />
        </mxCell>
        <mxCell id="ZiilgQkx77UCrtT-f1Fs-73" style="edgeStyle=orthogonalEdgeStyle;rounded=0;orthogonalLoop=1;jettySize=auto;html=1;entryX=0.5;entryY=1;entryDx=0;entryDy=0;" edge="1" parent="1" source="ZiilgQkx77UCrtT-f1Fs-45" target="ZiilgQkx77UCrtT-f1Fs-64">
          <mxGeometry relative="1" as="geometry" />
        </mxCell>
        <mxCell id="ZiilgQkx77UCrtT-f1Fs-45" value="&lt;b&gt;Aggregate (&lt;/b&gt;&lt;b&gt;FinalPartitioned&lt;/b&gt;&lt;b&gt;)&lt;/b&gt;" style="whiteSpace=wrap;html=1;rounded=0;fillColor=#dae8fc;strokeColor=#6c8ebf;" vertex="1" parent="1">
          <mxGeometry x="380" y="-60" width="120" height="60" as="geometry" />
        </mxCell>
        <mxCell id="ZiilgQkx77UCrtT-f1Fs-74" style="edgeStyle=orthogonalEdgeStyle;rounded=0;orthogonalLoop=1;jettySize=auto;html=1;entryX=0.5;entryY=1;entryDx=0;entryDy=0;" edge="1" parent="1" source="ZiilgQkx77UCrtT-f1Fs-46" target="ZiilgQkx77UCrtT-f1Fs-66">
          <mxGeometry relative="1" as="geometry" />
        </mxCell>
        <mxCell id="ZiilgQkx77UCrtT-f1Fs-46" value="&lt;b&gt;Aggregate (&lt;/b&gt;&lt;b&gt;FinalPartitioned&lt;/b&gt;&lt;b&gt;)&lt;/b&gt;" style="whiteSpace=wrap;html=1;rounded=0;fillColor=#dae8fc;strokeColor=#6c8ebf;" vertex="1" parent="1">
          <mxGeometry x="570" y="-60" width="120" height="60" as="geometry" />
        </mxCell>
        <mxCell id="ZiilgQkx77UCrtT-f1Fs-47" value="" style="shape=waypoint;sketch=0;size=6;pointerEvents=1;points=[];fillColor=none;resizable=0;rotatable=0;perimeter=centerPerimeter;snapToPoint=1;" vertex="1" parent="1">
          <mxGeometry x="515" y="-35" width="20" height="20" as="geometry" />
        </mxCell>
        <mxCell id="ZiilgQkx77UCrtT-f1Fs-48" value="" style="shape=waypoint;sketch=0;size=6;pointerEvents=1;points=[];fillColor=none;resizable=0;rotatable=0;perimeter=centerPerimeter;snapToPoint=1;" vertex="1" parent="1">
          <mxGeometry x="525" y="-35" width="20" height="20" as="geometry" />
        </mxCell>
        <mxCell id="ZiilgQkx77UCrtT-f1Fs-49" value="" style="shape=waypoint;sketch=0;size=6;pointerEvents=1;points=[];fillColor=none;resizable=0;rotatable=0;perimeter=centerPerimeter;snapToPoint=1;" vertex="1" parent="1">
          <mxGeometry x="535" y="-35" width="20" height="20" as="geometry" />
        </mxCell>
        <mxCell id="ZiilgQkx77UCrtT-f1Fs-53" value="" style="shape=waypoint;sketch=0;size=6;pointerEvents=1;points=[];fillColor=none;resizable=0;rotatable=0;perimeter=centerPerimeter;snapToPoint=1;" vertex="1" parent="1">
          <mxGeometry x="515" y="62" width="20" height="20" as="geometry" />
        </mxCell>
        <mxCell id="ZiilgQkx77UCrtT-f1Fs-54" value="" style="shape=waypoint;sketch=0;size=6;pointerEvents=1;points=[];fillColor=none;resizable=0;rotatable=0;perimeter=centerPerimeter;snapToPoint=1;" vertex="1" parent="1">
          <mxGeometry x="525" y="62" width="20" height="20" as="geometry" />
        </mxCell>
        <mxCell id="ZiilgQkx77UCrtT-f1Fs-55" value="" style="shape=waypoint;sketch=0;size=6;pointerEvents=1;points=[];fillColor=none;resizable=0;rotatable=0;perimeter=centerPerimeter;snapToPoint=1;" vertex="1" parent="1">
          <mxGeometry x="535" y="62" width="20" height="20" as="geometry" />
        </mxCell>
        <mxCell id="ZiilgQkx77UCrtT-f1Fs-56" value="" style="shape=waypoint;sketch=0;size=6;pointerEvents=1;points=[];fillColor=none;resizable=0;rotatable=0;perimeter=centerPerimeter;snapToPoint=1;" vertex="1" parent="1">
          <mxGeometry x="515" y="328" width="20" height="20" as="geometry" />
        </mxCell>
        <mxCell id="ZiilgQkx77UCrtT-f1Fs-57" value="" style="shape=waypoint;sketch=0;size=6;pointerEvents=1;points=[];fillColor=none;resizable=0;rotatable=0;perimeter=centerPerimeter;snapToPoint=1;" vertex="1" parent="1">
          <mxGeometry x="525" y="328" width="20" height="20" as="geometry" />
        </mxCell>
        <mxCell id="ZiilgQkx77UCrtT-f1Fs-58" value="" style="shape=waypoint;sketch=0;size=6;pointerEvents=1;points=[];fillColor=none;resizable=0;rotatable=0;perimeter=centerPerimeter;snapToPoint=1;" vertex="1" parent="1">
          <mxGeometry x="535" y="328" width="20" height="20" as="geometry" />
        </mxCell>
        <mxCell id="ZiilgQkx77UCrtT-f1Fs-59" value="" style="shape=waypoint;sketch=0;size=6;pointerEvents=1;points=[];fillColor=none;resizable=0;rotatable=0;perimeter=centerPerimeter;snapToPoint=1;" vertex="1" parent="1">
          <mxGeometry x="515" y="512" width="20" height="20" as="geometry" />
        </mxCell>
        <mxCell id="ZiilgQkx77UCrtT-f1Fs-60" value="" style="shape=waypoint;sketch=0;size=6;pointerEvents=1;points=[];fillColor=none;resizable=0;rotatable=0;perimeter=centerPerimeter;snapToPoint=1;" vertex="1" parent="1">
          <mxGeometry x="525" y="512" width="20" height="20" as="geometry" />
        </mxCell>
        <mxCell id="ZiilgQkx77UCrtT-f1Fs-61" value="" style="shape=waypoint;sketch=0;size=6;pointerEvents=1;points=[];fillColor=none;resizable=0;rotatable=0;perimeter=centerPerimeter;snapToPoint=1;" vertex="1" parent="1">
          <mxGeometry x="535" y="512" width="20" height="20" as="geometry" />
        </mxCell>
        <mxCell id="ZiilgQkx77UCrtT-f1Fs-62" value="" style="rounded=1;whiteSpace=wrap;html=1;fillColor=#d5e8d4;strokeColor=#82b366;" vertex="1" parent="1">
          <mxGeometry x="265" y="-128" width="90" height="20" as="geometry" />
        </mxCell>
        <mxCell id="ZiilgQkx77UCrtT-f1Fs-63" value="Partition0" style="text;html=1;align=center;verticalAlign=middle;resizable=0;points=[];autosize=1;strokeColor=none;fillColor=none;" vertex="1" parent="1">
          <mxGeometry x="275" y="-160" width="70" height="30" as="geometry" />
        </mxCell>
        <mxCell id="ZiilgQkx77UCrtT-f1Fs-64" value="" style="rounded=1;whiteSpace=wrap;html=1;fillColor=#d5e8d4;strokeColor=#82b366;" vertex="1" parent="1">
          <mxGeometry x="395" y="-128" width="90" height="20" as="geometry" />
        </mxCell>
        <mxCell id="ZiilgQkx77UCrtT-f1Fs-65" value="Partition1" style="text;html=1;align=center;verticalAlign=middle;resizable=0;points=[];autosize=1;strokeColor=none;fillColor=none;" vertex="1" parent="1">
          <mxGeometry x="405" y="-160" width="70" height="30" as="geometry" />
        </mxCell>
        <mxCell id="ZiilgQkx77UCrtT-f1Fs-66" value="" style="rounded=1;whiteSpace=wrap;html=1;fillColor=#d5e8d4;strokeColor=#82b366;" vertex="1" parent="1">
          <mxGeometry x="585" y="-128" width="90" height="20" as="geometry" />
        </mxCell>
        <mxCell id="ZiilgQkx77UCrtT-f1Fs-67" value="PartitionM" style="text;html=1;align=center;verticalAlign=middle;resizable=0;points=[];autosize=1;strokeColor=none;fillColor=none;" vertex="1" parent="1">
          <mxGeometry x="590" y="-160" width="80" height="30" as="geometry" />
        </mxCell>
        <mxCell id="ZiilgQkx77UCrtT-f1Fs-68" value="" style="shape=waypoint;sketch=0;size=6;pointerEvents=1;points=[];fillColor=none;resizable=0;rotatable=0;perimeter=centerPerimeter;snapToPoint=1;" vertex="1" parent="1">
          <mxGeometry x="515" y="-130" width="20" height="20" as="geometry" />
        </mxCell>
        <mxCell id="ZiilgQkx77UCrtT-f1Fs-69" value="" style="shape=waypoint;sketch=0;size=6;pointerEvents=1;points=[];fillColor=none;resizable=0;rotatable=0;perimeter=centerPerimeter;snapToPoint=1;" vertex="1" parent="1">
          <mxGeometry x="525" y="-130" width="20" height="20" as="geometry" />
        </mxCell>
        <mxCell id="ZiilgQkx77UCrtT-f1Fs-70" value="" style="shape=waypoint;sketch=0;size=6;pointerEvents=1;points=[];fillColor=none;resizable=0;rotatable=0;perimeter=centerPerimeter;snapToPoint=1;" vertex="1" parent="1">
          <mxGeometry x="535" y="-130" width="20" height="20" as="geometry" />
        </mxCell>
      </root>
    </mxGraphModel>
  </diagram>
</mxfile>
